<svg xmlns="http://www.w3.org/2000/svg" enable-background="new 0 0 1000 1000" viewBox="0 0 1000 1000"><path fill="gray" d="M633.2,897.9c28.9,27.8,66.9,43,107,43c85.2,0,154.4-69.3,154.4-154.5c0-85.2-69.3-154.4-154.4-154.4
			c-11,0-21.7,1.1-32.2,3.4c2.3-15.1,3.4-30.3,3.4-45.7c0-13.2-0.8-26.2-2.5-39c89.8-15.8,158.3-94.4,158.3-188.7
			c0-105.7-86-191.6-191.6-191.6c-83.7,0-155,53.9-181,128.8c-27.6-8.1-56.5-12.4-86.1-12.4c-80.9,0-157,31.5-214.2,88.7
			c-57.2,57.2-88.7,133.3-88.7,214.2c0,80.9,31.5,157,88.7,214.2c57.2,57.2,133.3,88.7,214.2,88.7c67.1,0,131.1-21.8,183.6-62
			C599.7,856,613.7,879.1,633.2,897.9z M222.6,775.6c-49.7-49.7-77-115.7-77-185.9s27.3-136.2,77-185.9c49.7-49.7,115.7-77,185.9-77
			c26.5,0,52.3,3.9,77,11.4c-1,7.8-1.5,15.7-1.5,23.8c0,103.4,82.4,187.9,184.9,191.5c1.6,11.9,2.5,24,2.5,36.3
			c0,24-3.2,47.7-9.6,70.6c-2.1,7.6,0.4,15.7,6.5,20.7c6.1,5,14.5,6,21.6,2.6c15.7-7.7,32.7-11.6,50.3-11.6
			c63.1,0,114.4,51.3,114.4,114.4c0,63.1-51.3,114.5-114.4,114.5c-29.7,0-57.8-11.3-79.3-31.9c-21.4-20.5-33.8-48-35.1-77.5
			c-0.3-7.9-5.3-14.8-12.6-17.7c-2.4-0.9-4.9-1.4-7.4-1.4c-5.1,0-10.2,2-14,5.7c-49.4,48.1-114.5,74.6-183.4,74.6
			C338.3,852.6,272.3,825.3,222.6,775.6z M827.2,362c0,83.6-68,151.6-151.6,151.6C592,513.6,524,445.6,524,362
			c0-83.6,68-151.6,151.6-151.6C759.2,210.4,827.2,278.4,827.2,362z"/><path fill="gray" d="M408.5 378c-10.8 0-21.6.8-32.1 2.4-10.9 1.7-18.4 11.9-16.8 22.8 1.5 9.9 10 17 19.7 17 1 0 2-.1 3-.2 8.6-1.3 17.4-2 26.1-2 11 0 20-9 20-20S419.5 378 408.5 378zM272.4 427.5c-48.1 40.4-75.6 99.5-75.6 162.2 0 11 9 20 20 20s20-9 20-20c0-50.9 22.4-98.8 61.4-131.6 8.5-7.1 9.6-19.7 2.4-28.2C293.4 421.5 280.8 420.4 272.4 427.5zM377.5 189.6c0 34.9 28.4 63.3 63.3 63.3s63.3-28.4 63.3-63.3c0-34.9-28.4-63.3-63.3-63.3S377.5 154.7 377.5 189.6zM464 189.6c0 12.8-10.4 23.3-23.3 23.3s-23.3-10.4-23.3-23.3 10.4-23.3 23.3-23.3S464 176.8 464 189.6zM210.7 297.1c68.1 0 123.5-55.4 123.5-123.5S278.8 50 210.7 50 87.1 105.4 87.1 173.5 142.6 297.1 210.7 297.1zM210.7 90c46.1 0 83.5 37.5 83.5 83.5s-37.5 83.5-83.5 83.5-83.5-37.5-83.5-83.5S164.6 90 210.7 90zM787.2 569.7c0 33.1 26.9 60 60 60s60-26.9 60-60-26.9-60-60-60S787.2 536.7 787.2 569.7zM867.2 569.7c0 11-9 20-20 20-11 0-20-9-20-20 0-11 9-20 20-20C858.2 549.8 867.2 558.7 867.2 569.7zM675.6 806.5c11 0 20-9 20-20 0-15.9 7-30.8 19.1-41.1 8.5-7.1 9.6-19.7 2.4-28.2-7.1-8.5-19.7-9.6-28.2-2.4-21.2 17.8-33.4 44-33.4 71.7C655.6 797.5 664.6 806.5 675.6 806.5zM661.3 289.1c1 0 2-.1 3-.2 3.7-.6 7.5-.8 11.3-.8 11 0 20-9 20-20s-9-20-20-20c-5.8 0-11.6.4-17.3 1.3-10.9 1.7-18.4 11.9-16.8 22.8C643.1 282 651.6 289.1 661.3 289.1zM561.7 362c0 11 9 20 20 20s20-9 20-20c0-21.9 9.6-42.5 26.4-56.6 8.5-7.1 9.6-19.7 2.4-28.2-7.1-8.5-19.7-9.6-28.2-2.4C576.5 296.4 561.7 328.2 561.7 362z"/><g><line x2="998.7" y1=".6" y2="1000" fill="none" stroke="#4d4d4d" stroke-miterlimit="10"/><line x2="998.7" y1="1000" y2=".6" fill="none" stroke="#4d4d4d" stroke-miterlimit="10"/><ellipse cx="500" cy="499.7" fill="none" stroke="#4d4d4d" stroke-miterlimit="10" rx="449.1" ry="449.4"/><ellipse cx="500" cy="499.7" fill="none" stroke="#4d4d4d" stroke-miterlimit="10" rx="198.4" ry="198.5"/><ellipse cx="500" cy="499.7" fill="none" stroke="#4d4d4d" stroke-miterlimit="10" rx="269.2" ry="269.3"/><line x1="50.9" x2="50.9" y2="999.4" fill="none" stroke="#4d4d4d" stroke-miterlimit="10"/><line x1="230.8" x2="230.8" y2="999.4" fill="none" stroke="#4d4d4d" stroke-miterlimit="10"/><line x1="499.4" x2="499.4" y2="999.4" fill="none" stroke="#4d4d4d" stroke-miterlimit="10"/><line x1="1000" y1="949.1" y2="949.1" fill="none" stroke="#4d4d4d" stroke-miterlimit="10"/><line x1="1000" y1="50.3" y2="50.3" fill="none" stroke="#4d4d4d" stroke-miterlimit="10"/><line x1="769.2" x2="769.2" y2="999.4" fill="none" stroke="#4d4d4d" stroke-miterlimit="10"/><line x1="999.4" x2=".6" y1="230.3" y2="230.3" fill="none" stroke="#4d4d4d" stroke-miterlimit="10"/><line x1="999.4" x2=".6" y1="499" y2="499" fill="none" stroke="#4d4d4d" stroke-miterlimit="10"/><line x1="999.4" x2=".6" y1="769" y2="769" fill="none" stroke="#4d4d4d" stroke-miterlimit="10"/><line x1="949.1" x2="949.1" y2="999.4" fill="none" stroke="#4d4d4d" stroke-miterlimit="10"/></g></svg>